{"title":"Road Hard 2015 UNRATED HDRIp x264 AC3 TiTAN","uid":11738659,"size":1210107869,"categoryP":"video","categoryS":"movies","magnet":"?xt=urn:btih:4b9a70d8bf874d4355dc922b738fbac754db9d8d&amp;dn=Road+Hard+2015+UNRATED+HDRIp+x264+AC3+TiTAN&amp;tr=udp%3A%2F%2Ftracker.openbittorrent.com%3A80&amp;tr=udp%3A%2F%2Fopen.demonii.com%3A1337&amp;tr=udp%3A%2F%2Ftracker.coppersurfer.tk%3A6969&amp;tr=udp%3A%2F%2Fexodus.desync.com%3A6969","seeders":34,"leechers":4,"uploader":"xxxlavalxxx","files":3,"time":1425663637,"description":" &lt;a href=&quot;http://www.imdb.com/title/tt3110770/&quot; rel=&quot;nofollow&quot; target=&quot;_NEW&quot;&gt;http://www.imdb.com/title/tt3110770/&lt;/a&gt;\n\nFollowing an expensive divorce and the cancellation of his TV show, a stand-up comic is forced to go back on the road to provide for his daughter.\nDirectors: Adam Carolla, Kevin Hench\nWriters: Adam Carolla, Kevin Hench\nStars: Adam Carolla, David Alan Grier, Jay Mohr\nGenres: Comedy\nCountry: USA\nLanguage: English\n\nSource: Itunes\n\nGeneral\n\nFormat                                   : Matroska\nFormat version                           : Version 2\nFile size                                : 1.13 GiB\nDuration                                 : 1h 37mn\nOverall bit rate mode                    : Variable\nOverall bit rate                         : 1 653 Kbps\nEncoded date                             : UTC 2015-03-06 15:53:19\n\nVideo\nID                                       : 1\nFormat                                   : AVC\nFormat/Info                              : Advanced Video Codec\nFormat profile                           : &lt;a class=&quot;__cf_email__&quot; href=&quot;/cdn-cgi/l/email-protection&quot; data-cfemail=&quot;0941606e6149453d2738&quot;&gt;[email&amp;#160;protected]&lt;/a&gt;&lt;script cf-hash='f9e31' type=&quot;text/javascript&quot;&gt;\n/* &lt;![CDATA[ */!function(){try{var t=&quot;currentScript&quot;in document?document.currentScript:function(){for(var t=document.getElementsByTagName(&quot;script&quot;),e=t.length;e--;)if(t[e].getAttribute(&quot;cf-hash&quot;))return t[e]}();if(t&amp;&amp;t.previousSibling){var e,r,n,i,c=t.previousSibling,a=c.getAttribute(&quot;data-cfemail&quot;);if(a){for(e=&quot;&quot;,r=parseInt(a.substr(0,2),16),n=2;a.length-n;n+=2)i=parseInt(a.substr(n,2),16)^r,e+=String.fromCharCode(i);e=document.createTextNode(e),c.parentNode.replaceChild(e,c)}}}catch(u){}}();/* ]]&gt; */&lt;/script&gt;\nFormat settings, CABAC                   : Yes\nFormat settings, ReFrames                : 3 frames\nCodec ID                                 : V_MPEG4/ISO/AVC\nDuration                                 : 1h 37mn\nBit rate mode                            : Variable\nBit rate                                 : 1 237 Kbps\nMaximum bit rate                         : 40.0 Mbps\nWidth                                    : 720 pixels\nHeight                                   : 400 pixels\nDisplay aspect ratio                     : 16:9\nFrame rate mode                          : Constant\nFrame rate                               : 23.976 fps\nColor space                              : YUV\nChroma subsampling                       : 4:2:0\nBit depth                                : 8 bits\nScan type                                : Progressive\nBits/(Pixel*Frame)                       : 0.179\nStream size                              : 863 MiB (75%)\nDefault                                  : Yes\nForced                                   : No\nColor primaries                          : BT.709\nTransfer characteristics                 : BT.709\nMatrix coefficients                      : BT.709\n\nAudio\nID                                       : 2\nFormat                                   : AC-3\nFormat/Info                              : Audio Coding 3\nMode extension                           : CM (complete main)\nFormat settings, Endianness              : Big\nCodec ID                                 : A_AC3\nDuration                                 : 1h 37mn\nBit rate mode                            : Constant\nBit rate                                 : 384 Kbps\nChannel(s)                               : 6 channels\nChannel positions                        : Front: L C R, Side: L R, LFE\nSampling rate                            : 48.0 KHz\nBit depth                                : 16 bits\nCompression mode                         : Lossy\nStream size                              : 268 MiB (23%)\nLanguage                                 : English\nDefault                                  : Yes\nForced                                   : No\n &lt;a href=&quot;\nhttp://i.imgur.com/OAUUh7I.jpg&quot; rel=&quot;nofollow&quot; target=&quot;_NEW&quot;&gt;\nhttp://i.imgur.com/OAUUh7I.jpg&lt;/a&gt; &lt;a href=&quot;\nhttp://i.imgur.com/Amj8ZTN.jpg&quot; rel=&quot;nofollow&quot; target=&quot;_NEW&quot;&gt;\nhttp://i.imgur.com/Amj8ZTN.jpg&lt;/a&gt; &lt;a href=&quot;\nhttp://i.imgur.com/HPue9hw.jpg&quot; rel=&quot;nofollow&quot; target=&quot;_NEW&quot;&gt;\nhttp://i.imgur.com/HPue9hw.jpg&lt;/a&gt; &lt;a href=&quot;\nhttp://i.imgur.com/IAeoMJA.jpg&quot; rel=&quot;nofollow&quot; target=&quot;_NEW&quot;&gt;\nhttp://i.imgur.com/IAeoMJA.jpg&lt;/a&gt; &lt;a href=&quot;\nhttp://i.imgur.com/XyFT4K8.jpg&quot; rel=&quot;nofollow&quot; target=&quot;_NEW&quot;&gt;\nhttp://i.imgur.com/XyFT4K8.jpg&lt;/a&gt; &lt;a href=&quot;\nhttp://i.imgur.com/OSiUpD6.jpg&quot; rel=&quot;nofollow&quot; target=&quot;_NEW&quot;&gt;\nhttp://i.imgur.com/OSiUpD6.jpg&lt;/a&gt; &lt;a href=&quot;\nhttp://i.imgur.com/lX8be10.jpg&quot; rel=&quot;nofollow&quot; target=&quot;_NEW&quot;&gt;\nhttp://i.imgur.com/lX8be10.jpg&lt;/a&gt;","torrent":{"xt":"urn:btih:4b9a70d8bf874d4355dc922b738fbac754db9d8d","amp;dn":"Road+Hard+2015+UNRATED+HDRIp+x264+AC3+TiTAN","amp;tr":["udp%3A%2F%2Ftracker.openbittorrent.com%3A80","udp%3A%2F%2Fopen.demonii.com%3A1337","udp%3A%2F%2Ftracker.coppersurfer.tk%3A6969","udp%3A%2F%2Fexodus.desync.com%3A6969"],"infoHash":"4b9a70d8bf874d4355dc922b738fbac754db9d8d","infoHashBuffer":{"type":"Buffer","data":[75,154,112,216,191,135,77,67,85,220,146,43,115,143,186,199,84,219,157,141]},"announce":[],"urlList":[]}}